<svg xmlns="http://www.w3.org/2000/svg" xmlns:xlink="http://www.w3.org/1999/xlink" version="1.0" x="0" y="0" width="2400" height="1732.79399793179" viewBox="78.8222006225586 59.1698568725586 182.3555987548828 131.6602862548828" preserveAspectRatio="xMidYMid meet" color-interpolation-filters="sRGB"><g><defs><linearGradient id="92" x1="0%" y1="0%" x2="100%" y2="0%"><stop offset="0%" stop-color="#fa71cd"></stop> <stop offset="100%" stop-color="#9b59b6"></stop></linearGradient><linearGradient id="93" x1="0%" y1="0%" x2="100%" y2="0%"><stop offset="0%" stop-color="#f9d423"></stop> <stop offset="100%" stop-color="#f83600"></stop></linearGradient><linearGradient id="94" x1="0%" y1="0%" x2="100%" y2="0%"><stop offset="0%" stop-color="#0064d2"></stop> <stop offset="100%" stop-color="#1cb0f6"></stop></linearGradient><linearGradient id="95" x1="0%" y1="0%" x2="100%" y2="0%"><stop offset="0%" stop-color="#f00978"></stop> <stop offset="100%" stop-color="#3f51b1"></stop></linearGradient><linearGradient id="96" x1="0%" y1="0%" x2="100%" y2="0%"><stop offset="0%" stop-color="#7873f5"></stop> <stop offset="100%" stop-color="#ec77ab"></stop></linearGradient><linearGradient id="97" x1="0%" y1="0%" x2="100%" y2="0%"><stop offset="0%" stop-color="#f9d423"></stop> <stop offset="100%" stop-color="#e14fad"></stop></linearGradient><linearGradient id="98" x1="0%" y1="0%" x2="100%" y2="0%"><stop offset="0%" stop-color="#009efd"></stop> <stop offset="100%" stop-color="#2af598"></stop></linearGradient><linearGradient id="99" x1="0%" y1="0%" x2="100%" y2="0%"><stop offset="0%" stop-color="#ffcc00"></stop> <stop offset="100%" stop-color="#00b140"></stop></linearGradient><linearGradient id="100" x1="0%" y1="0%" x2="100%" y2="0%"><stop offset="0%" stop-color="#d51007"></stop> <stop offset="100%" stop-color="#ff8177"></stop></linearGradient><linearGradient id="102" x1="0%" y1="0%" x2="100%" y2="0%"><stop offset="0%" stop-color="#a2b6df"></stop> <stop offset="100%" stop-color="#0c3483"></stop></linearGradient><linearGradient id="103" x1="0%" y1="0%" x2="100%" y2="0%"><stop offset="0%" stop-color="#7ac5d8"></stop> <stop offset="100%" stop-color="#eea2a2"></stop></linearGradient><linearGradient id="104" x1="0%" y1="0%" x2="100%" y2="0%"><stop offset="0%" stop-color="#00ecbc"></stop> <stop offset="100%" stop-color="#007adf"></stop></linearGradient><linearGradient id="105" x1="0%" y1="0%" x2="100%" y2="0%"><stop offset="0%" stop-color="#b88746"></stop> <stop offset="100%" stop-color="#fdf5a6"></stop></linearGradient></defs><g fill="#333333" class="icon-text-wrapper icon-svg-group iconsvg" transform="translate(80.61000066995621,60.95765686035156)"><g class="iconsvg-imagesvg" transform="translate(59.38999938964844,0)"><g><rect fill="#333333" fill-opacity="0" stroke-width="2" x="0" y="0" width="60" height="82.52867871585376" class="image-rect"></rect> <svg x="0" y="0" width="60" height="82.52867871585376" filtersec="colorsb2897590630" class="image-svg-svg primary" style="overflow: visible;"><svg xmlns="http://www.w3.org/2000/svg" viewBox="0 0 131.2979736328125 180.59866333007812"><path d="M39.91 89.86v83.73c0 6.89 0 6.94-6.7 6.9-11.78-.06-11 1.45-11-11.1V7.31c0-7.21 0-7.28 7.33-7.2 11.69.12 10.3-1.73 10.32 10.42.08 26.47.04 52.88.05 79.33z" fill="#B387FA"></path><path d="M17.8 90.43c.23 27.93.34 55.85.78 83.77.08 5-1.34 6.53-6.31 6.39C.7 180.26 1.43 182 1.33 169.85L0 7.21C0 .18 0 .18 7 .11c10.11-.1 10.12-.1 10.2 10q.28 40.15.6 80.32zM90.19 17.74c-11.91 0-23.81-.12-35.71.06-4 .06-5.5-1.37-5.39-5.4.38-14.62-2-12.17 12-12.27C82.41 0 103.77.21 125.13 0c4.61 0 6.3 1.19 6.16 6-.42 13.57 1.49 11.58-11.76 11.7-9.78.11-19.53.04-29.34.04z" fill="#FF865B"></path><path d="M89.93 39.31c-11.75 0-23.51-.14-35.26.08-4.34.09-5.69-1.51-5.59-5.72C49.41 20 47.54 22 60.79 21.93c21.38-.1 42.76.11 64.14-.13 5-.06 6.51 1.56 6.35 6.47-.41 12.54 1.32 10.94-11 11-10.11.09-20.23.04-30.35.04z" fill="#B387FA"></path><path d="M75.06 100.33c-7 0-14-.16-21 .06-3.89.13-5.06-1.36-5-5.15.32-13.44-1.61-12 12-12 11.39 0 22.79.11 34.18-.07 4.36-.07 6.17 1.45 6.08 6-.27 13.1 1.29 11.07-11.15 11.23-5.02-.01-10.07-.07-15.11-.07z" fill="#FF865B"></path><path d="M75 121.9c-7 0-14-.12-21 0-3.47.09-5-1-4.91-4.71.3-14-1.66-12.37 12.06-12.45 11.39-.06 22.79.12 34.18-.07 4.42-.07 6.11 1.58 6 6-.24 13 1.14 11-10.74 11.17-5.17.16-10.38.06-15.59.06z" fill="#B387FA"></path></svg></svg> </g></g> <g transform="translate(0,89.52867889404297)"><g fill-rule="" class="tp-name iconsvg-namesvg" transform="translate(0,0)"><g transform="scale(1)"><g><path d="M13.71-15.71L13.71-15.71 4.2-15.71 4.2-11.11 11.27-11.11 12.08-7.86 4.2-7.86 4.2 0 0.95 0 0.95-18.96 13.71-18.96 13.71-15.71ZM24.22-13.57L27.47-13.57 27.47 0 24.22 0 24.22-6.77Q24.22-8.4 23.08-9.53L23.08-9.53Q21.94-10.67 20.32-10.67L20.32-10.67Q19.53-10.67 18.81-10.37 18.09-10.08 17.55-9.53L17.55-9.53Q16.42-8.4 16.42-6.77L16.42-6.77Q16.42-5.17 17.55-4.04L17.55-4.04Q18.09-3.47 18.81-3.18 19.53-2.9 20.32-2.9L20.32-2.9Q21.13-2.9 21.78-3.17L21.78-3.17 22.94-0.27Q21.7 0.35 20.05 0.35L20.05 0.35Q18.56 0.35 17.3-0.2 16.04-0.76 15.12-1.73 14.19-2.71 13.68-4.01 13.16-5.31 13.16-6.77L13.16-6.77Q13.16-8.26 13.68-9.56 14.19-10.86 15.12-11.84 16.04-12.81 17.3-13.37 18.56-13.92 20.05-13.92L20.05-13.92Q21.37-13.92 22.4-13.52 23.43-13.11 24.22-12.49L24.22-12.49 24.22-13.57ZM36.19-13.92L36.19-13.92Q37.52-13.92 38.6-13.42 39.68-12.92 40.46-12.04 41.23-11.16 41.65-10 42.07-8.83 42.07-7.5L42.07-7.5 42.07 0 38.82 0 38.82-7.5Q38.82-8.86 37.87-9.75L37.87-9.75Q36.95-10.67 35.65-10.67L35.65-10.67Q34.32-10.67 33.4-9.75L33.4-9.75Q32.48-8.83 32.48-7.5L32.48-7.5 32.48 0 29.23 0 29.23-13.54 32.48-13.54 32.48-12.51Q33.21-13.14 34.13-13.53 35.05-13.92 36.19-13.92ZM50.03-3.25L50.84 0 47.86 0Q46.94 0 46.13-0.35 45.32-0.7 44.72-1.31 44.13-1.92 43.77-2.74 43.42-3.55 43.42-4.47L43.42-4.47 43.42-16.28 46.67-17.09 46.67-11.92 48.57-11.92 49.38-8.67 46.67-8.67 46.67-4.47Q46.67-3.95 47.02-3.6 47.38-3.25 47.86-3.25L47.86-3.25 50.03-3.25ZM61.73-13.57L64.98-13.57 64.98 0 61.73 0 61.73-6.77Q61.73-8.4 60.6-9.53L60.6-9.53Q59.46-10.67 57.83-10.67L57.83-10.67Q57.05-10.67 56.33-10.37 55.61-10.08 55.07-9.53L55.07-9.53Q53.93-8.4 53.93-6.77L53.93-6.77Q53.93-5.17 55.07-4.04L55.07-4.04Q55.61-3.47 56.33-3.18 57.05-2.9 57.83-2.9L57.83-2.9Q58.65-2.9 59.3-3.17L59.3-3.17 60.46-0.27Q59.21 0.35 57.56 0.35L57.56 0.35Q56.07 0.35 54.81-0.2 53.55-0.76 52.63-1.73 51.71-2.71 51.2-4.01 50.68-5.31 50.68-6.77L50.68-6.77Q50.68-8.26 51.2-9.56 51.71-10.86 52.63-11.84 53.55-12.81 54.81-13.37 56.07-13.92 57.56-13.92L57.56-13.92Q58.89-13.92 59.92-13.52 60.95-13.11 61.73-12.49L61.73-12.49 61.73-13.57ZM72.16-8.4L72.16-8.4Q72.49-8.32 73.25-8.02 74-7.72 74.8-7.19 75.6-6.66 76.2-5.88 76.79-5.09 76.79-4.01L76.79-4.01Q76.79-3.06 76.48-2.28 76.17-1.49 75.58-0.89 74.98-0.3 74.11 0.03 73.25 0.35 72.16 0.35L72.16 0.35Q70.51 0.35 69.09-0.24 67.67-0.84 66.8-1.71L66.8-1.71 69.05-3.95Q69.75-3.12 70.55-2.87 71.35-2.63 71.89-2.63L71.89-2.63Q72.73-2.63 73.14-2.95 73.54-3.28 73.54-3.74L73.54-3.74Q73.54-4.06 73.27-4.31 73-4.55 72.64-4.71 72.27-4.88 71.89-4.97 71.51-5.07 71.27-5.15L71.27-5.15Q70.94-5.26 70.17-5.53 69.4-5.8 68.6-6.31 67.8-6.83 67.21-7.61 66.61-8.4 66.61-9.51L66.61-9.51Q66.61-10.65 67-11.47 67.4-12.3 68.05-12.84 68.7-13.38 69.53-13.64 70.37-13.9 71.27-13.9L71.27-13.9Q72.65-13.9 73.61-13.57 74.57-13.25 75.2-12.87L75.2-12.87Q75.9-12.41 76.39-11.84L76.39-11.84 74.11-9.56Q73.57-10.27 72.92-10.59 72.27-10.92 71.54-10.92L71.54-10.92Q70.97-10.92 70.42-10.65 69.86-10.37 69.86-9.78L69.86-9.78Q69.86-9.45 70.1-9.22 70.35-8.99 70.7-8.84 71.05-8.7 71.44-8.59 71.84-8.48 72.16-8.4ZM89.12-13.54L92.7-13.54 86.41 0 85.57 1.84Q84.81 3.49 83.3 4.47 81.78 5.44 79.94 5.44L79.94 5.44 78.5 5.44 79.31 2.19 80.1 2.19Q80.88 2.19 81.56 1.76 82.24 1.33 82.56 0.6L82.56 0.6 82.84 0 76.55-13.54 80.13-13.54 84.62-3.85 89.12-13.54ZM106.27-18.96L106.27-18.96Q107.67-18.96 108.92-18.42 110.17-17.88 111.09-16.96 112.01-16.04 112.55-14.8 113.09-13.57 113.09-12.16L113.09-12.16Q113.09-10.75 112.55-9.51 112.01-8.26 111.09-7.34 110.17-6.42 108.92-5.88 107.67-5.34 106.27-5.34L106.27-5.34 103.56-5.34 104.88-8.59 106.27-8.59Q107.73-8.59 108.79-9.64L108.79-9.64Q109.84-10.7 109.84-12.16L109.84-12.16Q109.84-13.65 108.79-14.65L108.79-14.65Q107.73-15.71 106.27-15.71L106.27-15.71 102.45-15.71 102.45 0 99.2 0 99.2-18.96 106.27-18.96ZM117.97 0L117.97 0 114.72 0 114.72-18.96 117.97-18.96 117.97 0ZM130.51-13.57L133.76-13.57 133.76 0 130.51 0 130.51-6.77Q130.51-8.4 129.37-9.53L129.37-9.53Q128.23-10.67 126.61-10.67L126.61-10.67Q125.82-10.67 125.11-10.37 124.39-10.08 123.85-9.53L123.85-9.53Q122.71-8.4 122.71-6.77L122.71-6.77Q122.71-5.17 123.85-4.04L123.85-4.04Q124.39-3.47 125.11-3.18 125.82-2.9 126.61-2.9L126.61-2.9Q127.42-2.9 128.07-3.17L128.07-3.17 129.24-0.27Q127.99 0.35 126.34 0.35L126.34 0.35Q124.85 0.35 123.59-0.2 122.33-0.76 121.41-1.73 120.49-2.71 119.97-4.01 119.46-5.31 119.46-6.77L119.46-6.77Q119.46-8.26 119.97-9.56 120.49-10.86 121.41-11.84 122.33-12.81 123.59-13.37 124.85-13.92 126.34-13.92L126.34-13.92Q127.67-13.92 128.7-13.52 129.72-13.11 130.51-12.49L130.51-12.49 130.51-13.57ZM147.41-13.54L150.99-13.54 144.7 0 143.86 1.84Q143.11 3.49 141.59 4.47 140.07 5.44 138.23 5.44L138.23 5.44 136.79 5.44 137.61 2.19 138.39 2.19Q139.18 2.19 139.86 1.76 140.53 1.33 140.86 0.6L140.86 0.6 141.13 0 134.84-13.54 138.42-13.54 142.92-3.85 147.41-13.54ZM157.35-10.67L157.35-10.67Q155.73-10.67 154.59-9.53L154.59-9.53Q153.45-8.4 153.45-6.77L153.45-6.77Q153.45-5.17 154.59-4.04L154.59-4.04Q155.13-3.47 155.85-3.18 156.57-2.9 157.35-2.9L157.35-2.9Q158.14-2.9 158.84-3.18 159.55-3.47 160.12-4.04L160.12-4.04Q161.26-5.17 161.26-6.77L161.26-6.77Q161.26-8.4 160.12-9.53L160.12-9.53Q158.93-10.67 157.35-10.67ZM157.35-13.92L157.35-13.92Q158.84-13.92 160.14-13.37 161.44-12.81 162.42-11.84 163.4-10.86 163.95-9.56 164.51-8.26 164.51-6.77L164.51-6.77Q164.51-5.31 163.95-4.01 163.4-2.71 162.42-1.73 161.44-0.76 160.14-0.2 158.84 0.35 157.35 0.35L157.35 0.35Q155.86 0.35 154.56-0.2 153.26-0.76 152.29-1.73 151.31-2.71 150.76-4.01 150.2-5.31 150.2-6.77L150.2-6.77Q150.2-8.26 150.76-9.56 151.31-10.86 152.29-11.84 153.26-12.81 154.56-13.37 155.86-13.92 157.35-13.92ZM172.25-15.71L172.25-15.71Q171.58-15.71 170.99-15.45 170.41-15.2 169.96-14.76 169.52-14.33 169.25-13.75 168.98-13.16 168.98-12.49L168.98-12.49 170.9-12.49 171.71-9.24 168.98-9.24 168.98 0 165.72 0 165.72-9.24 165.72-12.46 165.72-12.49Q165.75-13.79 166.24-14.97 166.73-16.14 167.65-17.07L167.65-17.07Q168.57-17.99 169.76-18.47 170.95-18.96 172.25-18.96L172.25-18.96 172.25-15.71ZM179.73-15.71L179.73-15.71Q179.05-15.71 178.47-15.45 177.89-15.2 177.44-14.76 176.99-14.33 176.72-13.75 176.45-13.16 176.45-12.49L176.45-12.49 178.37-12.49 179.19-9.24 176.45-9.24 176.45 0 173.2 0 173.2-9.24 173.2-12.46 173.2-12.49Q173.23-13.79 173.72-14.97 174.2-16.14 175.12-17.07L175.12-17.07Q176.05-17.99 177.24-18.47 178.43-18.96 179.73-18.96L179.73-18.96 179.73-15.71Z" transform="translate(-0.9500000476837158, 18.959999084472656)"></path></g> </g></g> <g fill-rule="" class="tp-slogan iconsvg-slogansvg" fill="#666666" transform="translate(59.64999961853027,30.399999618530273)"> <g transform="scale(1, 1)"><g transform="scale(1)"><path d="M0.62-3.94C0.62-3.30 0.71-2.72 0.88-2.21C1.05-1.71 1.29-1.28 1.60-0.93C1.91-0.58 2.27-0.32 2.69-0.13C3.11 0.05 3.57 0.14 4.07 0.14C4.57 0.14 5.02 0.04 5.41-0.16C5.80-0.36 6.16-0.64 6.47-1.00L5.90-1.61C5.65-1.33 5.38-1.11 5.09-0.96C4.81-0.81 4.48-0.73 4.09-0.73C3.72-0.73 3.38-0.81 3.08-0.96C2.78-1.11 2.52-1.33 2.32-1.61C2.11-1.89 1.95-2.23 1.83-2.62C1.71-3.02 1.66-3.46 1.66-3.96C1.66-4.45 1.72-4.89 1.84-5.28C1.96-5.67 2.12-6.01 2.34-6.28C2.56-6.56 2.82-6.77 3.12-6.92C3.42-7.07 3.76-7.14 4.14-7.14C4.48-7.14 4.77-7.07 5.02-6.94C5.27-6.81 5.50-6.63 5.71-6.41L6.28-7.04C6.04-7.30 5.75-7.53 5.39-7.72C5.03-7.92 4.61-8.02 4.13-8.02C3.62-8.02 3.16-7.92 2.73-7.73C2.30-7.55 1.93-7.28 1.62-6.92C1.31-6.57 1.06-6.14 0.89-5.64C0.71-5.14 0.62-4.57 0.62-3.94ZM7.93-7.87L7.93 0L8.93 0L8.93-3.71L12.59-3.71L12.59 0L13.60 0L13.60-7.87L12.59-7.87L12.59-4.57L8.93-4.57L8.93-7.87ZM19.10-3.20L16.74-3.20L17.11-4.40C17.26-4.84 17.39-5.28 17.52-5.72C17.65-6.15 17.77-6.60 17.89-7.06L17.94-7.06C18.07-6.60 18.20-6.15 18.32-5.72C18.45-5.28 18.59-4.84 18.73-4.40ZM19.36-2.40L20.10 0L21.17 0L18.50-7.87L17.38-7.87L14.71 0L15.73 0L16.49-2.40ZM22.28-7.87L22.28 0L26.72 0L26.72-0.85L23.28-0.85L23.28-7.87ZM28.12-7.87L28.12 0L32.56 0L32.56-0.85L29.11-0.85L29.11-7.87ZM33.95-7.87L33.95 0L38.60 0L38.60-0.85L34.94-0.85L34.94-3.71L37.93-3.71L37.93-4.56L34.94-4.56L34.94-7.03L38.48-7.03L38.48-7.87ZM40.27-7.87L40.27 0L41.22 0L41.22-4.12C41.22-4.53 41.21-4.95 41.18-5.36C41.15-5.77 41.12-6.18 41.09-6.58L41.14-6.58L41.99-4.96L44.84 0L45.88 0L45.88-7.87L44.93-7.87L44.93-3.80C44.93-3.39 44.94-2.97 44.97-2.54C45.00-2.11 45.02-1.70 45.05-1.30L45-1.30L44.15-2.93L41.30-7.87ZM47.58-3.94C47.58-3.30 47.67-2.72 47.84-2.21C48.02-1.71 48.26-1.28 48.58-0.93C48.89-0.58 49.26-0.32 49.69-0.13C50.12 0.05 50.60 0.14 51.12 0.14C51.65 0.14 52.12 0.06 52.54-0.11C52.96-0.29 53.30-0.50 53.56-0.77L53.56-4.08L50.98-4.08L50.98-3.25L52.64-3.25L52.64-1.20C52.48-1.06 52.28-0.94 52.03-0.86C51.77-0.77 51.51-0.73 51.23-0.73C50.80-0.73 50.43-0.81 50.11-0.96C49.78-1.11 49.51-1.33 49.29-1.61C49.07-1.89 48.90-2.23 48.79-2.62C48.67-3.02 48.61-3.46 48.61-3.96C48.61-4.45 48.67-4.89 48.80-5.28C48.92-5.67 49.10-6.01 49.32-6.28C49.54-6.56 49.82-6.77 50.14-6.92C50.46-7.07 50.82-7.14 51.22-7.14C51.62-7.14 51.95-7.07 52.21-6.93C52.47-6.79 52.70-6.62 52.90-6.41L53.46-7.04C53.23-7.28 52.93-7.51 52.57-7.71C52.20-7.91 51.75-8.02 51.20-8.02C50.68-8.02 50.19-7.92 49.75-7.73C49.31-7.55 48.93-7.28 48.61-6.92C48.28-6.57 48.03-6.14 47.85-5.64C47.67-5.14 47.58-4.57 47.58-3.94ZM55.44-7.87L55.44 0L60.10 0L60.10-0.85L56.44-0.85L56.44-3.71L59.42-3.71L59.42-4.56L56.44-4.56L56.44-7.03L59.98-7.03L59.98-7.87Z" transform="translate(-0.624, 8.016)"></path></g></g></g></g></g><defs v-gra="od"></defs></g></svg>